<svg xmlns="http://www.w3.org/2000/svg" width="20" height="20" viewBox="0 0 20 20">
    <path
     style="fill:currentColor;stroke-width:0.264583"
     d="M 10,0.85546875 C 8.8267732,0.85534287 7.6535844,1.5314052 6.8710938,2.8867188 L 3.7421875,8.3066406 h -0.00195 L 0.61328125,13.726562 c -0.7818487,1.355013 -0.78012577,2.708654 -0.19335937,3.72461 0.58676592,1.015956 1.75923642,1.693762 3.32421872,1.693359 L 10,19.142578 h 0.002 l 6.255859,0.002 c 1.564401,3.8e-5 2.737471,-0.679346 3.324219,-1.695312 0.58675,-1.015966 0.587144,-2.369275 -0.195312,-3.72461 L 16.257812,8.3066406 v -0.00195 L 13.128906,2.8867188 C 12.346707,1.5319092 11.173227,0.85559463 10,0.85546875 Z m 0,1.66796875 c 0.688725,2.77e-5 1.082039,0.1553445 1.683594,1.1972656 L 14.8125,9.1386719 v 0.00195 l 3.128906,5.4179691 c 0.601751,1.042324 0.539754,1.460142 0.195313,2.05664 -0.344402,0.596431 -0.675799,0.859407 -1.878907,0.859375 H 10 l -6.2578125,0.002 C 2.5386334,17.476872 2.2078124,17.213634 1.8632812,16.617188 1.518789,16.02081 1.4573078,15.602624 2.0585938,14.560547 L 5.1855469,9.140625 H 5.1875 L 8.3164062,3.7207031 C 8.9181833,2.6783944 9.3111967,2.5234098 10,2.5234375 Z"
    />
</svg>
